<?xml version="1.0" standalone="no"?><!DOCTYPE svg PUBLIC "-//W3C//DTD SVG 1.1//EN" "http://www.w3.org/Graphics/SVG/1.1/DTD/svg11.dtd"><svg t="1739031971843" class="icon" viewBox="0 0 1134 1024" version="1.1" xmlns="http://www.w3.org/2000/svg" p-id="5711" xmlns:xlink="http://www.w3.org/1999/xlink" width="221.484375" height="200"><path d="M854.598108 6.152498c69.504531 4.758838 122.187419 30.057162 159.803485 69.30483 14.799137 15.444979 26.207602 31.994689 34.671536 48.595386a180.814606 180.814606 0 0 1 5.863568 12.610921l58.401992 3.110241a20.352531 20.352531 0 0 1 17.089328 11.153526c5.064763 10.031801 1.036747 22.273062-8.854839 27.261345l-2.812813 1.453145c-53.536929 28.46805-79.158174 89.840066-67.13361 137.878838 2.039502 8.141012 4.822573 15.967602 8.84634 25.217594l2.001262 4.491153 13.452216 28.531784 2.124481 4.7121c17.930622 40.38639 27.295336 79.591568 29.411319 138.575668 6.500913 181.095037-150.268813 341.999004-335.850755 345.194224l-60.505228 0.36966a628.710506 628.710506 0 0 1-80.845012 59.400498c-159.90971 98.618423-363.120598 127.413643-606.224996 63.73444L0 981.455137l16.375502-18.686938 240.903436-274.279037 111.169859-126.194191c16.316017-18.487237 32.134905-36.41361 47.418423-53.706888l85.603851-96.70639a151.254573 151.254573 0 0 1 6.908813-7.274224l34.191402-38.878008 11.174772-12.831868c5.226224-6.037776 9.963817-11.578423 14.484714-16.940614l7.830838-9.37746c32.304863-39.073461 54.939087-71.726739 72.104896-105.765179l2.031004-4.091751 1.104731-3.241958c19.218058-58.215037 6.06327-107.655967-28.01766-149.011121a192.010622 192.010622 0 0 0-25.612747-25.697726 165.208166 165.208166 0 0 0-5.166739-4.112996l-3.11024-2.307186-2.438905-1.699585-39.982738-25.400299 46.912796-3.080498 11.200266-0.586357 12.011817-0.480133 11.10254-0.352664c61.958373-1.767568 138.686141-0.603353 226.397477 5.400432z m-192.771187 858.919303l-0.446141 0.004249c-65.094108 0.688332-155.499286 1.827054-271.198539 3.411917l-253.331652 3.611618-80.785527 92.002788c224.222008 53.515685 410.657992 24.677975 558.063004-66.237078a589.118672 589.118672 0 0 0 47.698855-32.793494z m-52.372714-483.659419c-31.918207 9.003552-60.178058 26.386058-78.457095 44.048996l-364.858423 415.480564 408.227585-5.587386c50.775104-0.620349 92.457427-1.079237 125.046971-1.372415 66.113859-59.277278 113.319834-127.545361 131.352431-182.560929 22.315552-68.072631 21.894905-124.005975 3.887801-168.679569-13.312-33.018689-35.657295-57.91761-59.808398-72.58078-58.975602-35.801759-114.416066-43.135469-165.390872-28.75273z m37.123187-350.365212l-11.782373 0.254938a223.47844 223.47844 0 0 1 12.20302 13.630672c40.560598 49.224232 56.477212 109.720963 33.107918 179.297726l-1.512631 4.367934-2.481394 5.030772c-19.094838 38.125942-44.210456 74.038174-80.24166 117.18639l-2.965776 3.52239c2.710838-0.879535 5.442921-1.712332 8.200498-2.489892 59.14556-16.689925 123.389876-8.192 189.690689 32.058423 29.585527 17.960365 56.447469 47.890058 72.355585 87.354423 20.824166 51.667386 21.30005 115.019419-3.186722 189.72893-17.335768 52.874091-58.261776 115.584531-115.537793 172.68634l26.66649-0.144465c168.564846-2.919037 311.54244-149.648465 305.661875-313.382241-1.971519-54.905095-10.397212-90.27771-26.755718-127.154456l-2.009759-4.435917-11.438207-24.227585-2.519635-5.430174c-5.578888-12.372979-9.415701-22.765942-12.20727-33.919469-13.320498-53.197012 8.591402-117.122656 57.79439-156.242855l-47.409925-2.528133-3.101743-10.847601-0.53112-1.572117-0.909278-2.472896a137.547419 137.547419 0 0 0-5.969793-13.312c-7.159502-14.047071-16.868382-28.136631-29.483552-41.295668-32.394091-33.804747-77.955718-55.682656-139.710141-59.910373l-16.129062-1.057992c-71.981676-4.5039-136.009295-5.69361-189.796913-4.695104z" fill="#666666" p-id="5712"></path></svg>